<?xml version="1.0" standalone="no"?>
<!DOCTYPE svg PUBLIC "-//W3C//DTD SVG 20010904//EN"
 "http://www.w3.org/TR/2001/REC-SVG-20010904/DTD/svg10.dtd">
<svg version="1.0" xmlns="http://www.w3.org/2000/svg"
 width="500.000000pt" height="500.000000pt" viewBox="0 0 500.000000 500.000000"
 preserveAspectRatio="xMidYMid meet">
<metadata>
Created by potrace 1.14, written by Peter Selinger 2001-2017
</metadata>
<g transform="translate(0.000000,500.000000) scale(0.100000,-0.100000)"
fill="#000000" stroke="none">
<path d="M2340 4747 c-3 -3 -36 -7 -75 -11 -328 -27 -709 -164 -1010 -364
-555 -369 -923 -976 -993 -1637 -9 -89 -9 -389 0 -475 44 -401 208 -809 451
-1125 314 -409 751 -694 1252 -819 55 -14 120 -28 145 -31 25 -3 52 -8 61 -11
35 -10 122 -16 299 -19 272 -6 480 26 738 111 749 248 1311 869 1486 1641 41
181 51 278 51 493 0 197 -12 317 -45 470 -6 25 -12 54 -15 65 -10 54 -60 210
-92 290 -174 437 -478 808 -873 1065 -96 62 -366 200 -392 200 -8 0 -18 4 -23
9 -25 23 -298 98 -445 121 -41 6 -86 14 -100 16 -34 7 -414 16 -420 11z m1579
-1222 c-8 -419 -295 -753 -700 -816 -41 -6 -186 -12 -322 -13 l-248 -1 -58
-170 c-32 -93 -61 -182 -64 -197 l-7 -27 153 2 c84 0 157 -2 163 -6 13 -8 10
-140 -6 -228 -21 -118 -78 -252 -144 -342 -44 -60 -154 -163 -223 -208 -80
-52 -206 -101 -304 -119 -53 -10 -480 -14 -1007 -11 l-73 1 1 83 c8 412 290
747 688 817 35 6 175 12 311 13 l247 1 66 193 c37 106 64 195 60 197 -4 2 -71
3 -149 3 -88 -1 -144 2 -146 8 -8 27 6 211 22 276 18 78 66 184 115 258 148
221 373 352 637 369 57 4 303 7 547 7 l443 0 -2 -90z"/>
<path d="M2903 3429 c-241 -30 -450 -198 -528 -426 -13 -37 -25 -81 -27 -97
l-3 -30 78 1 c42 1 83 2 90 2 7 1 26 28 41 61 56 117 195 242 325 290 98 37
158 42 488 43 l322 0 10 26 c14 35 31 103 31 121 0 13 -49 15 -387 15 -214 0
-411 -3 -440 -6z"/>
<path d="M3075 3088 c-93 -7 -169 -35 -237 -84 -57 -43 -116 -113 -101 -122
14 -9 358 -7 439 2 119 12 255 74 346 156 l53 49 -210 3 c-115 2 -246 0 -290
-4z"/>
<path d="M1887 2124 c-1 -1 -27 -4 -57 -7 -120 -13 -259 -75 -350 -156 l-45
-40 40 -1 c116 -4 435 -1 468 4 69 11 149 45 201 85 54 42 102 98 92 109 -5 5
-343 10 -349 6z"/>
<path d="M2443 2105 c-10 -35 -74 -128 -117 -173 -22 -24 -67 -62 -100 -84
-85 -58 -157 -86 -271 -103 -11 -2 -160 -4 -332 -4 l-312 -1 -22 -70 c-35
-115 -73 -104 386 -104 220 1 418 4 440 7 217 32 416 188 498 387 30 73 51
150 43 157 -2 3 -50 6 -105 6 -93 2 -102 0 -108 -18z"/>
</g>
</svg>
