<?xml version="1.0" encoding="UTF-8"?>
<svg width="21px" height="21px" viewBox="0 0 21 21" version="1.1" xmlns="http://www.w3.org/2000/svg" xmlns:xlink="http://www.w3.org/1999/xlink">
    <title>Group</title>
    <g id="Page-1" stroke="none" stroke-width="1" fill="none" fill-rule="evenodd">
        <g id="Artboard" transform="translate(-678, -624)">
            <g id="Group-4" transform="translate(549, 615)">
                <g id="Group" transform="translate(129, 9)">
                    <circle id="Oval" fill="#3EEAD5" cx="10.5" cy="10.5" r="10.5"></circle>
                    <g id="+" transform="translate(5, 6.315)" fill="#FFFFFF" fill-rule="nonzero">
                        <path d="M1.00757924,5.19260687 L8.99242076,5.19260687 C9.54889141,5.19260687 10,4.74149828 10,4.18502763 C10,3.62855698 9.54889141,3.17744838 8.99242076,3.17744838 L1.00757924,3.17744838 C0.451108593,3.17744838 -6.81480001e-17,3.62855698 0,4.18502763 C6.81480001e-17,4.74149828 0.451108593,5.19260687 1.00757924,5.19260687 Z M10.9275707,4.18462234 L7.03888908,0.295940714 C6.64430147,-0.0986469047 6.00454853,-0.0986469047 5.60996091,0.295940714 C5.21537329,0.690528333 5.21537329,1.33028127 5.60996091,1.72486888 L7.16602263,3.2809306 L7.16602263,3.2809306 L9.0762659,5.19117387 L10.9275707,4.18462234 Z M5.60996091,8.07411465 C6.00454853,8.46870227 6.64430147,8.46870227 7.03888908,8.07411465 L10.9252089,4.1877948 L10.9252089,4.1877948 L9.07432816,3.18081923 L5.60996091,6.64518648 C5.21537329,7.03977409 5.21537329,7.67952703 5.60996091,8.07411465 Z" id="Shape"></path>
                    </g>
                </g>
            </g>
        </g>
    </g>
</svg>