<?xml version="1.0" encoding="UTF-8"?>
<svg width="130px" height="15px" viewBox="0 0 130 15" version="1.1" xmlns="http://www.w3.org/2000/svg" xmlns:xlink="http://www.w3.org/1999/xlink">
    <title>Search&amp;Send</title>
    <g id="Page-1" stroke="none" stroke-width="1" fill="none" fill-rule="evenodd">
        <g id="Artboard-Copy" transform="translate(-659, -934)" fill-rule="nonzero">
            <g id="Search&amp;Send" transform="translate(659, 934)">
                <path d="M6.38327821,14.9899733 C10.4270797,14.9899733 12.8194858,13.1550802 12.8194858,10.2673797 L12.8194858,10.2573529 C12.8194858,7.94117647 11.3162925,6.69786096 8.07701703,6.10628342 L6.51030862,5.82553476 C4.86949913,5.53475936 4.14966013,5.1236631 4.14966013,4.34157754 L4.14966013,4.3315508 C4.14966013,3.49933155 4.95418607,2.88770053 6.38327821,2.88770053 C7.78061274,2.88770053 8.76509843,3.47927807 8.88154298,4.43181818 L8.89212885,4.5421123 L12.5019097,4.5421123 L12.4913239,4.3315508 C12.3537076,1.70454545 10.1836047,0 6.3515206,0 C2.8475984,0 0.296404295,1.7947861 0.296404295,4.58221925 L0.296404295,4.59224599 C0.296404295,6.80815508 1.89487031,8.22192513 4.92242847,8.75334225 L6.48913688,9.03409091 C8.27814852,9.36497326 8.95564405,9.7459893 8.95564405,10.5681818 L8.95564405,10.5782086 C8.95564405,11.480615 8.00291596,12.1022727 6.45737928,12.1022727 C4.96477194,12.1022727 3.82149823,11.4906417 3.63095261,10.5581551 L3.60978088,10.447861 L0,10.447861 L0.0105858677,10.6283422 C0.17995975,13.3957219 2.58295171,14.9899733 6.38327821,14.9899733 Z" id="Path" fill="#34AB9D"></path>
                <path d="M18.8783323,14.959893 C22.5516284,14.959893 24.0018923,12.9144385 24.3512259,11.4004011 L24.3829835,11.2800802 L20.9955059,11.2800802 L20.98492,11.3302139 C20.8155461,11.7814171 20.1592223,12.4331551 18.9524334,12.4331551 C17.5868565,12.4331551 16.739987,11.5608289 16.6976436,10.0868984 L24.4464987,10.0868984 L24.4464987,9.04411765 C24.4464987,5.73529412 22.2340524,3.57954545 18.7513019,3.57954545 C15.2473797,3.57954545 13.0243475,5.75534759 13.0243475,9.26470588 L13.0243475,9.27473262 C13.0243475,12.8041444 15.2367938,14.959893 18.8783323,14.959893 Z M18.8359888,6.10628342 C19.9369191,6.10628342 20.7202733,6.76804813 20.9108189,7.99131016 L16.7505729,7.99131016 C16.9411185,6.7881016 17.7350586,6.10628342 18.8359888,6.10628342 Z" id="Shape" fill="#34AB9D"></path>
                <path d="M28.3775859,14.8796791 C29.8807791,14.8796791 31.0240528,14.2580214 31.6803766,13.1851604 L31.7544777,13.1851604 L31.7544777,14.7292781 L35.5018748,14.7292781 L35.5018748,7.27941176 C35.5018748,5.06350267 33.4588024,3.57954545 30.3571431,3.57954545 C27.1496252,3.57954545 25.2335832,5.03342246 25.0536234,7.15909091 L25.0430376,7.2894385 L28.4199293,7.2894385 L28.4411011,7.18917112 C28.5681315,6.6276738 29.1609401,6.18649733 30.1665975,6.18649733 C31.2145984,6.18649733 31.7544777,6.67780749 31.7544777,7.46991979 L31.7544777,8.01136364 L29.1291825,8.17179144 C26.1545537,8.36229947 24.4819866,9.51537433 24.4819866,11.5708556 L24.4819866,11.5808824 C24.4819866,13.4859626 26.0592809,14.8796791 28.3775859,14.8796791 Z M28.1658685,11.3502674 L28.1658685,11.3402406 C28.1658685,10.6885027 28.684576,10.2774064 29.7325769,10.217246 L31.7544777,10.0868984 L31.7544777,10.8188503 C31.7544777,11.7413102 30.8970224,12.4231283 29.6902335,12.4231283 C28.769263,12.4231283 28.1658685,12.0320856 28.1658685,11.3502674 Z" id="Shape" fill="#34AB9D"></path>
                <path d="M36.310131,14.7292781 L40.068114,14.7292781 L40.068114,8.93382353 C40.068114,7.37967914 40.9255693,6.55748663 42.5028636,6.55748663 C42.9474701,6.55748663 43.3814906,6.63770053 43.6990667,6.75802139 L43.6990667,3.71991979 C43.4132482,3.62967914 43.0850863,3.57954545 42.7251668,3.57954545 C41.3701758,3.57954545 40.4597912,4.36163102 40.1422151,5.74532086 L40.068114,5.74532086 L40.068114,3.81016043 L36.310131,3.81016043 L36.310131,14.7292781 Z" id="Path" fill="#34AB9D"></path>
                <path d="M49.0804177,14.959893 C52.4043801,14.959893 54.4262809,13.0548128 54.5003819,10.5180481 L54.5003819,10.447861 L51.059975,10.447861 L51.0388032,10.5481283 C50.8906011,11.5909091 50.2236914,12.2627005 49.1227612,12.2627005 C47.7889418,12.2627005 47.0267594,11.1998663 47.0267594,9.27473262 L47.0267594,9.26470588 C47.0267594,7.36965241 47.8101136,6.27673797 49.1121753,6.27673797 C50.2131055,6.27673797 50.8906011,6.97860963 51.0388032,7.99131016 L51.0493891,8.09157754 L54.5003819,8.09157754 L54.4897961,8.02139037 C54.4368667,5.42446524 52.2985215,3.57954545 49.0486601,3.57954545 C45.460051,3.57954545 43.215847,5.73529412 43.215847,9.25467914 L43.215847,9.26470588 C43.215847,12.8041444 45.4494651,14.959893 49.0804177,14.959893 Z" id="Path" fill="#34AB9D"></path>
                <path d="M54.9593045,14.7292781 L58.7172875,14.7292781 L58.7172875,8.54278075 C58.7172875,7.33957219 59.4582983,6.47727273 60.6439155,6.47727273 C61.882462,6.47727273 62.5387858,7.25935829 62.5387858,8.55280749 L62.5387858,14.7292781 L66.2967688,14.7292781 L66.2967688,7.7907754 C66.2967688,5.16377005 64.8147473,3.57954545 62.2953108,3.57954545 C60.5592285,3.57954545 59.3630255,4.35160428 58.7913886,5.77540107 L58.7172875,5.77540107 L58.7172875,0.260695187 L54.9593045,0.260695187 L54.9593045,14.7292781 Z" id="Path" fill="#34AB9D"></path>
                <path d="M72.2603425,15 C74.1552129,15 75.743093,14.5287433 77.0028113,13.7466578 L77.9661252,14.7292781 L81.9358256,14.7292781 L81.9358256,14.6891711 L79.0458837,11.8415775 C79.9139249,10.6483957 80.3691172,9.15441176 80.3691172,7.30949198 L80.3691172,6.64772727 L77.3521449,6.64772727 L77.3521449,7.1290107 C77.3521449,8.16176471 77.2039428,9.01403743 76.8969526,9.73596257 L74.3986878,7.26938503 C76.5052755,6.16644385 77.4580036,4.92312834 77.4580036,3.47927807 L77.4580036,3.46925134 C77.4580036,1.46390374 75.6372343,0.10026738 73.022525,0.10026738 C70.3443005,0.10026738 68.4176726,1.55414439 68.4176726,3.54946524 L68.4176726,3.55949198 C68.4282585,4.50200535 68.862279,5.32419786 70.2596136,6.82820856 L69.6985626,7.11898396 C67.6766618,8.17179144 66.8297924,9.40508021 66.8297924,10.9792781 L66.8297924,10.9893048 C66.8297924,13.4558824 68.9152084,15 72.2603425,15 Z M71.5193318,3.69986631 L71.5193318,3.68983957 C71.5193318,2.91778075 72.1544839,2.32620321 73.0119392,2.32620321 C73.8588086,2.32620321 74.4727889,2.89772727 74.4727889,3.69986631 L74.4727889,3.70989305 C74.4727889,4.50200535 73.9117379,5.1236631 72.8108077,5.7052139 C71.8898372,4.77272727 71.5193318,4.29144385 71.5193318,3.69986631 Z M70.2490277,10.6885027 L70.2490277,10.6784759 C70.2490277,9.94652406 70.6512907,9.31483957 71.7098774,8.74331551 L71.9745241,8.59291444 L75.1185268,11.8114973 C74.4304454,12.2526738 73.583576,12.5434492 72.6520197,12.5434492 C71.2335134,12.5434492 70.2490277,11.8215241 70.2490277,10.6885027 Z" id="Shape" fill="#34AB9D"></path>
                <path d="M87.8358842,14.9899733 C91.8796856,14.9899733 94.2720917,13.1550802 94.2720917,10.2673797 L94.2720917,10.2573529 C94.2720917,7.94117647 92.7688985,6.69786096 89.529623,6.10628342 L87.9629146,5.82553476 C86.3221051,5.53475936 85.6022661,5.1236631 85.6022661,4.34157754 L85.6022661,4.3315508 C85.6022661,3.49933155 86.406792,2.88770053 87.8358842,2.88770053 C89.2332187,2.88770053 90.2177044,3.47927807 90.3341489,4.43181818 L90.3447348,4.5421123 L93.9545157,4.5421123 L93.9439298,4.3315508 C93.8063135,1.70454545 91.6362106,0 87.8041265,0 C84.3002043,0 81.7490102,1.7947861 81.7490102,4.58221925 L81.7490102,4.59224599 C81.7490102,6.80815508 83.3474763,8.22192513 86.3750344,8.75334225 L87.9417428,9.03409091 C89.7307545,9.36497326 90.40825,9.7459893 90.40825,10.5681818 L90.40825,10.5782086 C90.40825,11.480615 89.4555219,12.1022727 87.9099852,12.1022727 C86.4173779,12.1022727 85.2741042,11.4906417 85.0835586,10.5581551 L85.0623868,10.447861 L81.4526059,10.447861 L81.4631918,10.6283422 C81.6325657,13.3957219 84.0355577,14.9899733 87.8358842,14.9899733 Z" id="Path" fill="#3EEAD5"></path>
                <path d="M100.330938,14.959893 C104.004234,14.959893 105.454498,12.9144385 105.803832,11.4004011 L105.835589,11.2800802 L102.448112,11.2800802 L102.437526,11.3302139 C102.268152,11.7814171 101.611828,12.4331551 100.405039,12.4331551 C99.0394624,12.4331551 98.192593,11.5608289 98.1502495,10.0868984 L105.899105,10.0868984 L105.899105,9.04411765 C105.899105,5.73529412 103.686658,3.57954545 100.203908,3.57954545 C96.6999857,3.57954545 94.4769534,5.75534759 94.4769534,9.26470588 L94.4769534,9.27473262 C94.4769534,12.8041444 96.6893998,14.959893 100.330938,14.959893 Z M100.288595,6.10628342 C101.389525,6.10628342 102.172879,6.76804813 102.363425,7.99131016 L98.2031789,7.99131016 C98.3937245,6.7881016 99.1876646,6.10628342 100.288595,6.10628342 Z" id="Shape" fill="#3EEAD5"></path>
                <path d="M106.368613,14.7292781 L110.126596,14.7292781 L110.126596,8.53275401 C110.126596,7.31951872 110.867607,6.47727273 112.06381,6.47727273 C113.291771,6.47727273 113.916337,7.2092246 113.916337,8.46256684 L113.916337,14.7292781 L117.663734,14.7292781 L117.663734,7.70053476 C117.663734,5.11363636 116.234642,3.57954545 113.704619,3.57954545 C111.957951,3.57954545 110.772334,4.36163102 110.200697,5.73529412 L110.126596,5.73529412 L110.126596,3.81016043 L106.368613,3.81016043 L106.368613,14.7292781 Z" id="Path" fill="#3EEAD5"></path>
                <path d="M122.685165,14.959893 C124.347147,14.959893 125.606865,14.1677807 126.178502,12.8643048 L126.252603,12.8643048 L126.252603,14.7292781 L130,14.7292781 L130,0.260695187 L126.252603,0.260695187 L126.252603,5.74532086 L126.178502,5.74532086 C125.596279,4.39171123 124.336561,3.57954545 122.685165,3.57954545 C119.784638,3.57954545 118.090899,5.64505348 118.090899,9.26470588 L118.090899,9.27473262 C118.090899,12.8643048 119.805809,14.959893 122.685165,14.959893 Z M124.071914,12.0721925 C122.748681,12.0721925 121.901811,10.9993316 121.901811,9.27473262 L121.901811,9.26470588 C121.901811,7.52005348 122.748681,6.47727273 124.071914,6.47727273 C125.373976,6.47727273 126.252603,7.53008021 126.252603,9.26470588 L126.252603,9.27473262 C126.252603,11.0093583 125.384562,12.0721925 124.071914,12.0721925 Z" id="Shape" fill="#3EEAD5"></path>
            </g>
        </g>
    </g>
</svg>