<?xml version="1.0" encoding="UTF-8"?>
<svg width="547px" height="102px" viewBox="0 0 547 102" version="1.1" xmlns="http://www.w3.org/2000/svg" xmlns:xlink="http://www.w3.org/1999/xlink">
    <title>Group 7</title>
    <g id="Page-1" stroke="none" stroke-width="1" fill="none" fill-rule="evenodd">
        <g id="Artboard-Copy" transform="translate(-549, -256)" fill-rule="nonzero">
            <g id="Group-7" transform="translate(549.7549, 256.7271)">
                <g id="Search&amp;Send" transform="translate(0, 0)">
                    <path d="M26.793457,66.4282227 C43.7670898,66.4282227 53.809082,58.296875 53.809082,45.5 L53.809082,45.4555664 C53.809082,35.1914062 47.4995117,29.6816406 33.902832,27.0600586 L27.3266602,25.815918 C20.4394531,24.5273438 17.4179688,22.7055664 17.4179688,19.2397461 L17.4179688,19.1953125 C17.4179688,15.5073242 20.7949219,12.796875 26.793457,12.796875 C32.6586914,12.796875 36.7910156,15.418457 37.2797852,19.6396484 L37.3242188,20.128418 L52.4760742,20.128418 L52.4316406,19.1953125 C51.8540039,7.55371094 42.7451172,0 26.6601562,0 C11.9526367,0 1.24414062,7.95361328 1.24414062,20.3061523 L1.24414062,20.3505859 C1.24414062,30.1704102 7.95361328,36.4355469 20.6616211,38.7905273 L27.237793,40.034668 C34.7470703,41.5009766 37.5908203,43.1894531 37.5908203,46.8330078 L37.5908203,46.8774414 C37.5908203,50.8764648 33.5917969,53.6313477 27.1044922,53.6313477 C20.8393555,53.6313477 16.0405273,50.9208984 15.2407227,46.7885742 L15.1518555,46.2998047 L0,46.2998047 L0.0444335938,47.0996094 C0.755371094,59.3632812 10.8417969,66.4282227 26.793457,66.4282227 Z" id="Path" fill="#34AB9D"></path>
                    <path d="M79.2407552,66.2949219 C94.6592122,66.2949219 100.746615,57.2304688 102.212923,50.5209961 L102.346224,49.987793 L88.127474,49.987793 L88.0830404,50.2099609 C87.3721029,52.2094727 84.6172201,55.0976562 79.5517904,55.0976562 C73.8198568,55.0976562 70.2651693,51.2319336 70.0874349,44.7001953 L102.612826,44.7001953 L102.612826,40.0791016 C102.612826,25.4160156 93.3262044,15.862793 78.7075521,15.862793 C64.0000326,15.862793 54.6689779,25.5048828 54.6689779,41.0566406 L54.6689779,41.1010742 C54.6689779,56.7416992 63.955599,66.2949219 79.2407552,66.2949219 Z M79.0630208,27.0600586 C83.6841146,27.0600586 86.9722005,29.9926758 87.7720052,35.4135742 L70.3096029,35.4135742 C71.1094076,30.081543 74.4419271,27.0600586 79.0630208,27.0600586 Z" id="Shape" fill="#34AB9D"></path>
                    <path d="M119.113346,65.9394531 C125.422917,65.9394531 130.221745,63.1845703 132.976628,58.4301758 L133.287663,58.4301758 L133.287663,65.2729492 L149.017155,65.2729492 L149.017155,32.2587891 C149.017155,22.4389648 140.441471,15.862793 127.422428,15.862793 C113.959049,15.862793 105.916569,22.3056641 105.161198,31.7255859 L105.116764,32.3032227 L119.291081,32.3032227 L119.379948,31.8588867 C119.913151,29.3706055 122.401432,27.4155273 126.622624,27.4155273 C131.021549,27.4155273 133.287663,29.5927734 133.287663,33.1030273 L133.287663,35.5024414 L122.268132,36.2133789 C109.782292,37.0576172 102.761784,42.1674805 102.761784,51.2763672 L102.761784,51.3208008 C102.761784,59.7631836 109.382389,65.9394531 119.113346,65.9394531 Z M118.224674,50.2988281 L118.224674,50.2543945 C118.224674,47.3662109 120.401921,45.5444336 124.800846,45.277832 L133.287663,44.7001953 L133.287663,47.9438477 C133.287663,52.0317383 129.688542,55.0532227 124.623112,55.0532227 C120.757389,55.0532227 118.224674,53.3203125 118.224674,50.2988281 Z" id="Shape" fill="#34AB9D"></path>
                    <path d="M152.409766,65.2729492 L168.183691,65.2729492 L168.183691,39.590332 C168.183691,32.703125 171.782813,29.0595703 178.403418,29.0595703 C180.269629,29.0595703 182.091406,29.4150391 183.424414,29.9482422 L183.424414,16.4848633 C182.224707,16.0849609 180.847266,15.862793 179.336523,15.862793 C173.649023,15.862793 169.827734,19.3286133 168.494727,25.4604492 L168.183691,25.4604492 L168.183691,16.8847656 L152.409766,16.8847656 L152.409766,65.2729492 Z" id="Path" fill="#34AB9D"></path>
                    <path d="M206.012337,66.2949219 C219.964486,66.2949219 228.451302,57.8525391 228.762337,46.6108398 L228.762337,46.2998047 L214.321419,46.2998047 L214.232552,46.7441406 C213.610482,51.3652344 210.811165,54.3422852 206.190072,54.3422852 C200.591439,54.3422852 197.39222,49.6323242 197.39222,41.1010742 L197.39222,41.0566406 C197.39222,32.6586914 200.680306,27.8154297 206.145638,27.8154297 C210.766732,27.8154297 213.610482,30.9257812 214.232552,35.4135742 L214.276986,35.8579102 L228.762337,35.8579102 L228.717904,35.546875 C228.495736,24.0385742 219.52015,15.862793 205.879036,15.862793 C190.816048,15.862793 181.396126,25.4160156 181.396126,41.012207 L181.396126,41.0566406 C181.396126,56.7416992 190.771615,66.2949219 206.012337,66.2949219 Z" id="Path" fill="#34AB9D"></path>
                    <path d="M230.688639,65.2729492 L246.462565,65.2729492 L246.462565,37.8574219 C246.462565,32.5253906 249.572917,28.7041016 254.549479,28.7041016 C259.74821,28.7041016 262.503092,32.1699219 262.503092,37.9018555 L262.503092,65.2729492 L278.277018,65.2729492 L278.277018,34.5249023 C278.277018,22.8833008 272.056315,15.862793 261.48112,15.862793 C254.19401,15.862793 249.173014,19.2841797 246.7736,25.59375 L246.462565,25.59375 L246.462565,1.15527344 L230.688639,1.15527344 L230.688639,65.2729492 Z" id="Path" fill="#34AB9D"></path>
                    <path d="M303.308789,66.4726562 C311.262402,66.4726562 317.927441,64.3842773 323.215039,60.918457 L327.258496,65.2729492 L343.921094,65.2729492 L343.921094,65.0952148 L331.790723,52.4760742 C335.434277,47.1884766 337.344922,40.5678711 337.344922,32.3920898 L337.344922,29.4594727 L324.681348,29.4594727 L324.681348,31.5922852 C324.681348,36.1689453 324.059277,39.9458008 322.770703,43.1450195 L312.284375,32.2143555 C321.12666,27.3266602 325.125684,21.8168945 325.125684,15.418457 L325.125684,15.3740234 C325.125684,6.48730469 317.483105,0.444335938 306.508008,0.444335938 C295.266309,0.444335938 287.179395,6.88720703 287.179395,15.7294922 L287.179395,15.7739258 C287.223828,19.9506836 289.045605,23.5942383 294.91084,30.2592773 L292.555859,31.5478516 C284.069043,36.2133789 280.514355,41.6787109 280.514355,48.6547852 L280.514355,48.6992188 C280.514355,59.6298828 289.267773,66.4726562 303.308789,66.4726562 Z M300.198438,16.3959961 L300.198438,16.3515625 C300.198438,12.9301758 302.864453,10.3085938 306.463574,10.3085938 C310.018262,10.3085938 312.59541,12.8413086 312.59541,16.3959961 L312.59541,16.4404297 C312.59541,19.9506836 310.24043,22.7055664 305.619336,25.2827148 C301.753613,21.1503906 300.198438,19.0175781 300.198438,16.3959961 Z M294.866406,47.3662109 L294.866406,47.3217773 C294.866406,44.078125 296.554883,41.2788086 300.998242,38.7460938 L302.109082,38.0795898 L315.305859,52.3427734 C312.417676,54.2978516 308.862988,55.5864258 304.952832,55.5864258 C298.99873,55.5864258 294.866406,52.387207 294.866406,47.3662109 Z" id="Shape" fill="#34AB9D"></path>
                    <path d="M368.686263,66.4282227 C385.659896,66.4282227 395.701888,58.296875 395.701888,45.5 L395.701888,45.4555664 C395.701888,35.1914062 389.392318,29.6816406 375.795638,27.0600586 L369.219466,25.815918 C362.332259,24.5273438 359.310775,22.7055664 359.310775,19.2397461 L359.310775,19.1953125 C359.310775,15.5073242 362.687728,12.796875 368.686263,12.796875 C374.551497,12.796875 378.683822,15.418457 379.172591,19.6396484 L379.217025,20.128418 L394.36888,20.128418 L394.324447,19.1953125 C393.74681,7.55371094 384.637923,0 368.552962,0 C353.845443,0 343.136947,7.95361328 343.136947,20.3061523 L343.136947,20.3505859 C343.136947,30.1704102 349.846419,36.4355469 362.554427,38.7905273 L369.130599,40.034668 C376.639876,41.5009766 379.483626,43.1894531 379.483626,46.8330078 L379.483626,46.8774414 C379.483626,50.8764648 375.484603,53.6313477 368.997298,53.6313477 C362.732161,53.6313477 357.933333,50.9208984 357.133529,46.7885742 L357.044661,46.2998047 L341.892806,46.2998047 L341.93724,47.0996094 C342.648177,59.3632812 352.734603,66.4282227 368.686263,66.4282227 Z" id="Path" fill="#3EEAD5"></path>
                    <path d="M421.133561,66.2949219 C436.552018,66.2949219 442.639421,57.2304688 444.105729,50.5209961 L444.23903,49.987793 L430.02028,49.987793 L429.975846,50.2099609 C429.264909,52.2094727 426.510026,55.0976562 421.444596,55.0976562 C415.712663,55.0976562 412.157975,51.2319336 411.980241,44.7001953 L444.505632,44.7001953 L444.505632,40.0791016 C444.505632,25.4160156 435.21901,15.862793 420.600358,15.862793 C405.892839,15.862793 396.561784,25.5048828 396.561784,41.0566406 L396.561784,41.1010742 C396.561784,56.7416992 405.848405,66.2949219 421.133561,66.2949219 Z M420.955827,27.0600586 C425.576921,27.0600586 428.865007,29.9926758 429.664811,35.4135742 L412.202409,35.4135742 C413.002214,30.081543 416.334733,27.0600586 420.955827,27.0600586 Z" id="Shape" fill="#3EEAD5"></path>
                    <path d="M446.476367,65.2729492 L462.250293,65.2729492 L462.250293,37.8129883 C462.250293,32.4365234 465.360645,28.7041016 470.381641,28.7041016 C475.535937,28.7041016 478.15752,31.9477539 478.15752,37.5019531 L478.15752,65.2729492 L493.887012,65.2729492 L493.887012,34.125 C493.887012,22.6611328 487.888477,15.862793 477.268848,15.862793 C469.937305,15.862793 464.960742,19.3286133 462.561328,25.4160156 L462.250293,25.4160156 L462.250293,16.8847656 L446.476367,16.8847656 L446.476367,65.2729492 Z" id="Path" fill="#3EEAD5"></path>
                    <path d="M514.964193,66.2949219 C521.940267,66.2949219 527.227865,62.784668 529.627279,57.0083008 L529.938314,57.0083008 L529.938314,65.2729492 L545.667806,65.2729492 L545.667806,1.15527344 L529.938314,1.15527344 L529.938314,25.4604492 L529.627279,25.4604492 C527.183431,19.4619141 521.895833,15.862793 514.964193,15.862793 C502.789388,15.862793 495.680013,25.0161133 495.680013,41.0566406 L495.680013,41.1010742 C495.680013,57.0083008 502.878255,66.2949219 514.964193,66.2949219 Z M520.784993,53.4980469 C515.230794,53.4980469 511.676107,48.7436523 511.676107,41.1010742 L511.676107,41.0566406 C511.676107,33.3251953 515.230794,28.7041016 520.784993,28.7041016 C526.250326,28.7041016 529.938314,33.3696289 529.938314,41.0566406 L529.938314,41.1010742 C529.938314,48.7880859 526.294759,53.4980469 520.784993,53.4980469 Z" id="Shape" fill="#3EEAD5"></path>
                </g>
                <g id="by-Staffing-Fitness" transform="translate(346.356, 77.291)" fill="#86868B">
                    <path d="M8.44726562,19.2626953 C11.7675781,19.2626953 13.7329102,16.7114258 13.7329102,12.3413086 L13.7329102,12.3291016 C13.7329102,7.92236328 11.7797852,5.40771484 8.43505859,5.40771484 C6.54296875,5.40771484 5.09033203,6.39648438 4.41894531,8.04443359 L4.33349609,8.04443359 L4.33349609,1.3671875 L0,1.3671875 L0,18.9819336 L4.33349609,18.9819336 L4.33349609,16.7114258 L4.41894531,16.7114258 C5.06591797,18.2983398 6.51855469,19.2626953 8.44726562,19.2626953 Z M6.84814453,15.7470703 C5.33447266,15.7470703 4.33349609,14.453125 4.33349609,12.3413086 L4.33349609,12.3291016 C4.33349609,10.2172852 5.34667969,8.93554688 6.84814453,8.93554688 C8.36181641,8.93554688 9.35058594,10.2050781 9.35058594,12.3291016 L9.35058594,12.3413086 C9.35058594,14.440918 8.37402344,15.7470703 6.84814453,15.7470703 Z" id="Shape"></path>
                    <path d="M16.3251023,23.3154297 C19.5599656,23.3154297 21.659575,22.3632812 22.7460007,18.9208984 L26.9818406,5.68847656 L22.4164109,5.68847656 L20.0482468,15.7348633 L19.9383836,15.7348633 L17.5580125,5.68847656 L12.7728562,5.68847656 L17.3504929,18.9819336 L17.2528367,19.2626953 C17.0331101,19.8486328 16.5326218,20.1293945 15.6170945,20.1293945 C14.9457078,20.1293945 14.4330125,20.0561523 14.1522507,19.9951172 L14.1522507,23.1323242 C14.640532,23.2177734 15.4706101,23.3154297 16.3251023,23.3154297 Z" id="Path"></path>
                    <path d="M37.659389,19.2993164 C42.3224749,19.2993164 45.081264,17.0654297 45.081264,13.5498047 L45.081264,13.5375977 C45.081264,10.7177734 43.3478655,9.20410156 39.612514,8.48388672 L37.8058733,8.14208984 C35.9137835,7.78808594 35.0837054,7.28759766 35.0837054,6.33544922 L35.0837054,6.32324219 C35.0837054,5.31005859 36.0114397,4.56542969 37.659389,4.56542969 C39.2707171,4.56542969 40.405971,5.28564453 40.5402483,6.4453125 L40.5524554,6.57958984 L44.715053,6.57958984 L44.702846,6.32324219 C44.5441546,3.125 42.0417132,1.04980469 37.6227679,1.04980469 C33.5822405,1.04980469 30.640346,3.23486328 30.640346,6.62841797 L30.640346,6.640625 C30.640346,9.33837891 32.4836077,11.0595703 35.9748186,11.706543 L37.7814593,12.0483398 C39.8444475,12.4511719 40.6256975,12.9150391 40.6256975,13.9160156 L40.6256975,13.9282227 C40.6256975,15.0268555 39.5270647,15.7836914 37.7448382,15.7836914 C36.0236468,15.7836914 34.7052874,15.0390625 34.4855608,13.9038086 L34.4611468,13.7695312 L30.2985491,13.7695312 L30.3107561,13.9892578 C30.5060686,17.3583984 33.2770647,19.2993164 37.659389,19.2993164 Z" id="Path"></path>
                    <path d="M51.4942569,19.2626953 C52.3975772,19.2626953 53.0445499,19.1894531 53.5206241,19.1040039 L53.5206241,16.027832 C53.2764834,16.0644531 53.0567569,16.0888672 52.71496,16.0888672 C51.6529483,16.0888672 51.140253,15.6616211 51.140253,14.5141602 L51.140253,8.86230469 L53.5206241,8.86230469 L53.5206241,5.68847656 L51.140253,5.68847656 L51.140253,2.62451172 L46.8067569,2.62451172 L46.8067569,5.68847656 L45.0001163,5.68847656 L45.0001163,8.86230469 L46.8067569,8.86230469 L46.8067569,15.1000977 C46.8067569,18.1030273 48.2716006,19.2626953 51.4942569,19.2626953 Z" id="Path"></path>
                    <path d="M58.1147693,19.1650391 C59.8481678,19.1650391 61.1665272,18.4082031 61.9233631,17.1020508 L62.0088123,17.1020508 L62.0088123,18.9819336 L66.3301014,18.9819336 L66.3301014,9.91210938 C66.3301014,7.21435547 63.9741443,5.40771484 60.3974842,5.40771484 C56.6987537,5.40771484 54.4892811,7.17773438 54.2817615,9.765625 L54.2695545,9.92431641 L58.1635975,9.92431641 L58.1880115,9.80224609 C58.3344959,9.11865234 59.0180897,8.58154297 60.1777576,8.58154297 C61.3862537,8.58154297 62.0088123,9.1796875 62.0088123,10.144043 L62.0088123,10.8032227 L58.9814686,10.9985352 C55.5512928,11.2304688 53.6225818,12.6342773 53.6225818,15.1367188 L53.6225818,15.1489258 C53.6225818,17.4682617 55.4414295,19.1650391 58.1147693,19.1650391 Z M57.8706287,14.8681641 L57.8706287,14.855957 C57.8706287,14.0625 58.4687733,13.5620117 59.6772693,13.4887695 L62.0088123,13.3300781 L62.0088123,14.2211914 C62.0088123,15.3442383 61.0200428,16.1743164 59.6284412,16.1743164 C58.5664295,16.1743164 57.8706287,15.6982422 57.8706287,14.8681641 Z" id="Shape"></path>
                    <path d="M68.3485631,18.9819336 L72.6820592,18.9819336 L72.6820592,8.86230469 L75.1478795,8.86230469 L75.1478795,5.68847656 L72.5599888,5.68847656 L72.5599888,5.11474609 C72.5599888,4.34570312 73.0604771,3.89404297 74.2567662,3.89404297 C74.586356,3.89404297 74.9281529,3.90625 75.1722935,3.95507812 L75.1722935,1.26953125 C74.6962193,1.171875 73.8539342,1.08642578 73.0970982,1.08642578 C69.6180943,1.08642578 68.3485631,2.29492188 68.3485631,4.91943359 L68.3485631,5.68847656 L66.5785435,5.68847656 L66.5785435,8.86230469 L68.3485631,8.86230469 L68.3485631,18.9819336 Z" id="Path"></path>
                    <path d="M76.8001302,18.9819336 L81.1336263,18.9819336 L81.1336263,8.86230469 L83.5994466,8.86230469 L83.5994466,5.68847656 L81.011556,5.68847656 L81.011556,5.11474609 C81.011556,4.34570312 81.5120443,3.89404297 82.7083333,3.89404297 C83.0379232,3.89404297 83.3797201,3.90625 83.6238607,3.95507812 L83.6238607,1.26953125 C83.1477865,1.171875 82.3055013,1.08642578 81.5486654,1.08642578 C78.0696615,1.08642578 76.8001302,2.29492188 76.8001302,4.91943359 L76.8001302,5.68847656 L75.0301107,5.68847656 L75.0301107,8.86230469 L76.8001302,8.86230469 L76.8001302,18.9819336 Z" id="Path"></path>
                    <path d="M86.3625372,4.26025391 C87.6198614,4.26025391 88.5720099,3.28369141 88.5720099,2.12402344 C88.5720099,0.964355469 87.6198614,0 86.3625372,0 C85.11742,0 84.1530645,0.964355469 84.1530645,2.12402344 C84.1530645,3.28369141 85.11742,4.26025391 86.3625372,4.26025391 Z M84.2018927,18.9819336 L88.5231817,18.9819336 L88.5231817,5.68847656 L84.2018927,5.68847656 L84.2018927,18.9819336 Z" id="Shape"></path>
                    <path d="M89.5040458,18.9819336 L93.8375419,18.9819336 L93.8375419,11.4379883 C93.8375419,9.9609375 94.692034,8.93554688 96.0714286,8.93554688 C97.4874442,8.93554688 98.207659,9.82666016 98.207659,11.3525391 L98.207659,18.9819336 L102.528948,18.9819336 L102.528948,10.4248047 C102.528948,7.27539062 100.880999,5.40771484 97.9635184,5.40771484 C95.9493583,5.40771484 94.5821708,6.35986328 93.9229911,8.03222656 L93.8375419,8.03222656 L93.8375419,5.68847656 L89.5040458,5.68847656 L89.5040458,18.9819336 Z" id="Path"></path>
                    <path d="M109.930711,23.5351562 C114.117722,23.5351562 116.730027,21.5087891 116.730027,18.6035156 L116.730027,5.68847656 L112.408738,5.68847656 L112.408738,7.98339844 L112.311082,7.98339844 C111.651902,6.38427734 110.223679,5.40771484 108.343797,5.40771484 C104.986863,5.40771484 103.021531,7.84912109 103.021531,12.1459961 L103.021531,12.1582031 C103.021531,16.2719727 104.962449,18.6401367 108.282761,18.6401367 C110.211472,18.6401367 111.676316,17.7978516 112.323289,16.4428711 L112.408738,16.4428711 L112.408738,18.6523438 C112.408738,19.8486328 111.57866,20.6542969 109.955125,20.6542969 C108.587937,20.6542969 107.770066,20.0927734 107.562547,19.5800781 L107.525925,19.5068359 L103.351121,19.5068359 L103.363328,19.6166992 C103.656297,21.8383789 106.085496,23.5351562 109.930711,23.5351562 Z M109.918504,15.637207 C108.392625,15.637207 107.416062,14.3676758 107.416062,12.2802734 L107.416062,12.2680664 C107.416062,10.1806641 108.404832,8.93554688 109.918504,8.93554688 C111.432175,8.93554688 112.433152,10.1806641 112.433152,12.2802734 L112.433152,12.2924805 C112.433152,14.3798828 111.444382,15.637207 109.918504,15.637207 Z" id="Shape"></path>
                    <polygon id="Path" points="121.706892 18.9819336 126.186872 18.9819336 126.186872 12.4145508 133.010603 12.4145508 133.010603 8.984375 126.186872 8.984375 126.186872 4.96826172 133.694196 4.96826172 133.694196 1.3671875 121.706892 1.3671875"></polygon>
                    <path d="M136.44508,4.26025391 C137.702404,4.26025391 138.654553,3.28369141 138.654553,2.12402344 C138.654553,0.964355469 137.702404,0 136.44508,0 C135.199963,0 134.235607,0.964355469 134.235607,2.12402344 C134.235607,3.28369141 135.199963,4.26025391 136.44508,4.26025391 Z M134.284435,18.9819336 L138.605725,18.9819336 L138.605725,5.68847656 L134.284435,5.68847656 L134.284435,18.9819336 Z" id="Shape"></path>
                    <path d="M145.360514,19.2626953 C146.263835,19.2626953 146.910807,19.1894531 147.386882,19.1040039 L147.386882,16.027832 C147.142741,16.0644531 146.923014,16.0888672 146.581217,16.0888672 C145.519206,16.0888672 145.00651,15.6616211 145.00651,14.5141602 L145.00651,8.86230469 L147.386882,8.86230469 L147.386882,5.68847656 L145.00651,5.68847656 L145.00651,2.62451172 L140.673014,2.62451172 L140.673014,5.68847656 L138.866374,5.68847656 L138.866374,8.86230469 L140.673014,8.86230469 L140.673014,15.1000977 C140.673014,18.1030273 142.137858,19.2626953 145.360514,19.2626953 Z" id="Path"></path>
                    <path d="M148.050363,18.9819336 L152.383859,18.9819336 L152.383859,11.4379883 C152.383859,9.9609375 153.238351,8.93554688 154.617746,8.93554688 C156.033761,8.93554688 156.753976,9.82666016 156.753976,11.3525391 L156.753976,18.9819336 L161.075265,18.9819336 L161.075265,10.4248047 C161.075265,7.27539062 159.427316,5.40771484 156.509835,5.40771484 C154.495675,5.40771484 153.128488,6.35986328 152.469308,8.03222656 L152.383859,8.03222656 L152.383859,5.68847656 L148.050363,5.68847656 L148.050363,18.9819336 Z" id="Path"></path>
                    <path d="M168.318336,19.2626953 C172.554176,19.2626953 174.226539,16.7724609 174.629371,14.9291992 L174.665992,14.7827148 L170.759742,14.7827148 L170.747535,14.84375 C170.552223,15.3930664 169.795387,16.1865234 168.403785,16.1865234 C166.829078,16.1865234 165.852516,15.1245117 165.803688,13.3300781 L174.739235,13.3300781 L174.739235,12.0605469 C174.739235,8.03222656 172.187965,5.40771484 168.171852,5.40771484 C164.131324,5.40771484 161.567848,8.05664062 161.567848,12.3291016 L161.567848,12.3413086 C161.567848,16.6381836 164.119117,19.2626953 168.318336,19.2626953 Z M168.269508,8.48388672 C169.539039,8.48388672 170.44236,9.28955078 170.662086,10.7788086 L165.864723,10.7788086 C166.084449,9.31396484 166.999977,8.48388672 168.269508,8.48388672 Z" id="Shape"></path>
                    <path d="M181.127813,19.2626953 C184.777716,19.2626953 187.26795,17.5170898 187.26795,14.7705078 L187.26795,14.7583008 C187.26795,12.7685547 186.047247,11.6699219 183.227423,11.1083984 L180.883673,10.6445312 C179.626349,10.3881836 179.223517,10.0463867 179.223517,9.47265625 L179.223517,9.46044922 C179.223517,8.76464844 179.90711,8.32519531 180.969122,8.32519531 C182.165411,8.32519531 182.836798,8.97216797 182.934454,9.75341797 L182.946661,9.85107422 L186.901739,9.85107422 L186.889532,9.75341797 C186.852911,7.37304688 184.814337,5.40771484 180.969122,5.40771484 C177.331427,5.40771484 175.060919,7.05566406 175.060919,9.70458984 L175.060919,9.71679688 C175.060919,11.7431641 176.415899,13.0981445 179.015997,13.5986328 L181.359747,14.0625 C182.543829,14.3066406 182.971075,14.6362305 182.971075,15.234375 L182.971075,15.246582 C182.971075,15.9301758 182.275274,16.3452148 181.127813,16.3452148 C179.858282,16.3452148 179.174688,15.8203125 178.967169,14.9169922 L178.942755,14.8193359 L174.743536,14.8193359 L174.755743,14.9291992 C175.048712,17.5170898 177.172735,19.2626953 181.127813,19.2626953 Z" id="Path"></path>
                    <path d="M193.510045,19.2626953 C197.159947,19.2626953 199.650181,17.5170898 199.650181,14.7705078 L199.650181,14.7583008 C199.650181,12.7685547 198.429478,11.6699219 195.609654,11.1083984 L193.265904,10.6445312 C192.00858,10.3881836 191.605748,10.0463867 191.605748,9.47265625 L191.605748,9.46044922 C191.605748,8.76464844 192.289342,8.32519531 193.351353,8.32519531 C194.547642,8.32519531 195.219029,8.97216797 195.316685,9.75341797 L195.328892,9.85107422 L199.28397,9.85107422 L199.271763,9.75341797 C199.235142,7.37304688 197.196568,5.40771484 193.351353,5.40771484 C189.713658,5.40771484 187.44315,7.05566406 187.44315,9.70458984 L187.44315,9.71679688 C187.44315,11.7431641 188.798131,13.0981445 191.398228,13.5986328 L193.741978,14.0625 C194.92606,14.3066406 195.353306,14.6362305 195.353306,15.234375 L195.353306,15.246582 C195.353306,15.9301758 194.657506,16.3452148 193.510045,16.3452148 C192.240513,16.3452148 191.55692,15.8203125 191.3494,14.9169922 L191.324986,14.8193359 L187.125767,14.8193359 L187.137974,14.9291992 C187.430943,17.5170898 189.554967,19.2626953 193.510045,19.2626953 Z" id="Path"></path>
                </g>
            </g>
        </g>
    </g>
</svg>