<?xml version="1.0" encoding="UTF-8"?>
<svg width="76px" height="18px" viewBox="0 0 76 18" version="1.1" xmlns="http://www.w3.org/2000/svg" xmlns:xlink="http://www.w3.org/1999/xlink">
    <title>White</title>
    <g id="Page-1" stroke="none" stroke-width="1" fill="none" fill-rule="evenodd">
        <g id="Artboard" transform="translate(-795, -7)" fill="#FFFFFF" fill-rule="nonzero">
            <g id="Group-3" transform="translate(729, 7)">
                <g id="White" transform="translate(66, 0)">
                    <path d="M8.00164703,1.00000015 C12.4192629,1.00084529 16,4.58226739 16,8.99988322 C16,12.2356731 14.0507254,15.1528174 11.061186,16.3909576 C8.07164672,17.6290978 4.63063432,16.9443812 2.34280417,14.6561134 C0.0549740142,12.3678457 -0.629084276,8.92670245 0.609627792,5.93740012 C1.84833986,2.94809779 4.76585715,0.99938136 8.00164703,1.00000015 Z M13.0528357,5.04431754 L9.71087991,5.04431754 C8.09151119,5.04600438 6.77917425,6.35834129 6.77748741,7.97770996 L6.77748741,8.29752165 L7.86086868,8.29752165 L7.38038602,9.70224478 L5.88232068,9.70224478 C4.26295196,9.70393163 2.95061502,11.0162685 2.94892817,12.6356372 L2.94892817,12.9554489 L6.29088395,12.9554489 C7.91025267,12.953762 9.22258962,11.6414251 9.22427646,10.0220565 L9.22427646,9.70224478 L8.05520402,9.70224478 L8.53415647,8.29752165 L10.1194432,8.29752165 C11.7382143,8.29499188 13.0496204,6.98290139 13.0513055,5.36412923 L13.0528357,5.04431754 Z M8.57088126,10.340338 C8.41248917,11.4771605 7.4386829,12.3222151 6.29088395,12.3188957 L3.60997437,12.3188957 C3.63919949,12.1077028 3.69791981,11.9016666 3.78441712,11.7068061 L5.78897851,11.7068061 C6.68366115,11.706552 7.49001995,11.1671674 7.83179489,10.340338 Z M7.1156615,10.340338 C6.82773646,10.7949141 6.32706794,11.0703683 5.78897851,11.0702432 L4.20828239,11.0702432 C4.64131806,10.6058687 5.24737041,10.341621 5.88232068,10.340338 Z M11.8317365,6.89432872 C11.3959559,7.38154645 10.7731141,7.65984931 10.1194432,7.65942894 L8.78969979,7.65942894 C9.07501157,7.18157787 9.59198371,6.89048996 10.148517,6.89432872 Z M12.3856687,5.67475973 C12.3593706,5.87227833 12.3079477,6.06562829 12.2326487,6.25011474 L10.1423962,6.25011474 C9.2308777,6.25008918 8.412889,6.80979763 8.08274761,7.65942847 L7.43853361,7.65942847 C7.59374975,6.52305991 8.56396022,5.67567746 9.71087991,5.67475973 Z" id="Shape"></path>
                    <path d="M32.5787684,10.5212484 C32.0250652,10.5306542 31.4810518,10.5040043 30.9328856,10.5290866 C30.5729785,10.544763 30.4290157,10.4115135 30.4317842,9.98511536 C30.4474725,8.33909298 30.4474725,6.69254805 30.4317842,5.04548057 C30.4317842,4.61908239 30.5812841,4.48426532 30.9356541,4.50150937 C31.4104546,4.52345633 31.8852551,4.50934757 32.3600556,4.50150937 C32.892995,4.50150937 32.93037,4.45134488 32.935907,3.83055929 C32.935907,3.73023031 32.935907,3.62833368 32.935907,3.5280047 C32.9622079,3.12041821 32.7974812,2.95111305 32.4375741,2.96522181 C31.9032505,2.98403349 31.3689269,2.96522181 30.8346033,2.96522181 C30.5577517,2.96522181 30.4290157,2.83354002 30.4345527,2.51374138 C30.441474,2.1610223 30.4345527,1.80830322 30.4345527,1.45558414 C30.4345527,1.17027359 30.3113538,1.04956528 30.049729,1.02918596 C29.0115355,0.950803941 29.0073827,0.94766866 29.0073827,2.12653421 C29.0032238,2.19333729 29.0032238,2.26038911 29.0073827,2.32719218 L29.0073827,5.03137181 C28.9907716,6.08952906 29.0073827,7.14925394 29.0073827,8.20741119 C29.0073827,9.26556844 29.019841,10.3252933 29.0073827,11.3834506 C28.9990772,11.8286604 29.1167391,12.0105067 29.5375535,11.9995332 C30.398562,11.9681804 31.2595705,11.9901274 32.1191948,11.9901274 C33.0355736,11.9901274 33.0258838,11.9901274 32.9871245,10.9680259 C32.9649764,10.6529302 32.8625413,10.5165454 32.5787684,10.5212484 Z" id="Path"></path>
                    <path d="M41.4151291,11.2085619 C41.3461577,11.7124258 41.5938278,11.8823858 42.0860329,11.8192148 C42.1692218,11.8079402 42.2536492,11.8079402 42.3368381,11.8192148 C42.8368809,11.886898 43.0046068,11.7003932 42.9999042,11.2040497 C42.9763912,8.83513756 42.9889315,6.46622543 42.9889315,4.0973133 C42.9889315,3.12568331 42.9889315,3.13771588 41.9512252,3.15576474 C41.5718824,3.15576474 41.3916162,3.28060264 41.4119941,3.6641408 C41.4229668,3.83861306 41.4762629,4.03715045 41.3367525,4.21162271 C41.2861374,4.18135505 41.2374568,4.14820615 41.190972,4.11235401 C39.5952242,2.70604745 37.3270051,2.61580318 35.6826638,3.9408899 C34.2718848,5.07495958 33.8361109,6.57000635 34.0524303,8.28163936 C34.3267485,10.3948594 36.2077871,12.0252726 38.3756842,11.9997034 C39.5184098,12.0094876 40.6123964,11.5561845 41.3884811,10.7513243 C41.4091065,10.9028974 41.4180135,11.0557273 41.4151291,11.2085619 Z M37.5684051,10.3993716 C36.5024832,10.0624597 35.9162261,9.28786299 35.668556,8.2590783 C35.300186,6.73094196 36.0792495,5.16069164 37.4633804,4.64930743 C39.3099334,3.96044282 41.2599435,5.21784634 41.4041564,7.19269182 C41.4119941,7.30399309 41.4041564,7.41679843 41.4041564,7.52960377 C41.408859,9.63530344 39.5638736,11.0280734 37.5684051,10.3993716 L37.5684051,10.3993716 Z" id="Shape"></path>
                    <path d="M48.5469153,0 C47.5249216,0.013527279 46.502928,0.0120343322 45.4809344,0 C45.1304564,0 44.9972748,0.149385437 45.0028825,0.519636241 C45.0140978,1.23923659 45.0028825,1.96032989 45.0028825,2.67993025 L45.009892,5.4000793 C44.9916672,6.39139596 45.0028825,7.38420558 45.009892,8.37701519 C45.0169016,9.36982481 45.009892,10.3939863 45.009892,11.4017254 C45.009892,11.5749072 44.9594232,11.8227364 45.1178392,11.889919 C45.4905231,12.0245054 45.8927091,12.0359545 46.2716126,11.9227638 C46.5604064,11.8496094 46.455263,11.4927951 46.4566649,11.2539237 C46.4636745,9.38027544 46.4566649,7.50812016 46.4566649,5.63596489 C46.4566649,4.83275952 46.4566649,4.83275952 47.2319221,4.83275952 C47.5123044,4.83275952 47.8025002,4.83275952 48.0884902,4.83275952 C48.2202699,4.83275952 48.3983126,4.84321014 48.4333604,4.67450716 C48.5104656,4.29828457 48.551121,3.89369599 48.4207432,3.54136054 C48.3184037,3.26217949 48.0001697,3.39206586 47.7660505,3.38012229 C46.2239476,3.33085505 46.4804974,3.70558469 46.4566649,1.89464023 C46.4566649,1.58858614 46.5842389,1.46317861 46.8674251,1.46765745 C47.2879986,1.47661513 47.7085721,1.46765745 48.1291456,1.46765745 C49.0193595,1.46765745 49.0193595,1.45720682 48.9927232,0.495749092 C48.9843117,0.156850171 48.8917856,-0.00438808252 48.5469153,0 Z" id="Path"></path>
                    <path d="M53.5549714,0 C52.532161,0.0135273027 51.5079477,0.0120343533 50.4865403,0 C50.1357823,0 50.0024943,0.149385699 50.0081064,0.519637153 C50.0193307,1.23923877 50.0081064,1.96033334 50.0081064,2.67993495 L50.0081064,5.40008878 C49.989867,6.39140719 50.0081064,7.38421855 50.0081064,8.37702991 C50.0081064,9.36984127 50.0081064,10.3940046 50.0081064,11.4017454 C50.0081064,11.5749276 49.9590003,11.8227572 50.1175429,11.8899399 C50.4900472,12.0244976 50.8921002,12.0359478 51.2708352,11.9227848 C51.5612629,11.8496302 51.4560355,11.4928153 51.4560355,11.2539434 C51.4644537,9.38029191 51.4560355,7.50813335 51.4560355,5.63597479 C51.4560355,4.83276801 51.4560355,4.83276801 52.2305092,4.83276801 C52.5111156,4.83276801 52.8029462,4.83276801 53.0891648,4.83276801 C53.2210498,4.83276801 53.3978318,4.84321865 53.4329076,4.67451537 C53.5114774,4.29829212 53.5507623,3.89370282 53.4216834,3.54136676 C53.317859,3.26218522 53.0007737,3.39207182 52.7664674,3.38012823 C51.2231322,3.3308609 51.478484,3.7055912 51.4560355,1.89464356 C51.4560355,1.58858893 51.5837114,1.46318118 51.8657208,1.46766003 C52.2866304,1.47661773 52.70754,1.46766003 53.1284497,1.46766003 C54.019375,1.46766003 54.019375,1.45720938 53.9927174,0.495749963 C53.9927174,0.156850446 53.8931021,-0.00438809022 53.5549714,0 Z" id="Path"></path>
                    <path d="M56.9996692,12.4039052 C56.9698926,11.0988521 56.9897436,9.79379896 56.9897436,8.49030692 L56.9897436,4.82647958 C56.9897436,4.00691871 56.9897436,4.00691871 55.9237426,4.01004085 C55.8800703,4.01004085 55.836398,4.01004085 55.7947108,4.01004085 C55.1872689,3.95072025 54.9867733,4.15365913 55.0006691,4.63446817 C55.0244903,7.11032253 55.0006691,9.58617688 55.0125797,12.0620312 C55.0125797,13.0814088 54.8736224,12.9690119 56.2274636,12.9986722 C56.7971885,13.015844 57.0095947,12.8691035 56.9996692,12.4039052 Z" id="Path"></path>
                    <path d="M55.9743929,2 C56.5283754,2.00027747 56.9824573,1.56093586 57,1.00768567 C56.9962966,0.454025102 56.5490048,0.00558029077 55.994905,0 C55.4629513,0.0150588755 55.0308957,0.434149935 55.0000661,0.964987127 C54.9938689,1.51548436 55.4240959,1.97250809 55.9743929,2 Z" id="Path"></path>
                    <path d="M64.4466321,11.9668658 C64.4728372,13.0863418 64.2570309,12.9819188 65.5364537,12.9926682 C65.8447483,12.9926682 65.9988957,12.8867096 65.9911883,12.5642268 C65.9819395,10.8351046 66.0328081,9.10444685 65.9603588,7.37686033 C65.8909925,5.70916348 65.0015625,4.54668971 63.5572021,4.16431723 C62.1128417,3.78194474 60.77176,4.04914479 59.6372357,5.15326453 C59.5429266,5.0124435 59.5111361,4.83909137 59.5493717,4.6741472 C59.5771182,4.29023909 59.413722,4.11978388 59.0298952,4.15203217 C58.9636119,4.15203217 58.8973285,4.15203217 58.8310452,4.15203217 C58.003274,4.15203217 58.003274,4.15203217 58.003274,4.95209668 C58.003274,7.3231132 58.003274,9.69464159 58.003274,12.0666819 C58.003274,13.0740568 57.8938294,12.9619556 58.9404898,12.9988108 C59.4353027,13.0172384 59.5570791,12.822213 59.5570791,12.3645946 C59.5354984,10.9978817 59.5570791,9.63116878 59.5570791,8.26292026 C59.5531145,7.71709132 59.6911966,7.17955331 59.9578621,6.70271768 C60.4619238,5.79362327 61.6087799,5.29454272 62.6831868,5.50953126 C63.7144323,5.71530601 64.2709042,6.36641417 64.3895976,7.52428105 C64.5298717,9.00309511 64.4127197,10.4865161 64.4466321,11.9668658 Z" id="Path"></path>
                    <path d="M27.6916785,3 L26.2051282,3 C24.6157083,3.00018634 23.202739,4.00588535 22.6908919,5.50130276 L21.5425515,8.84523189 C21.1801818,9.89211903 20.1884091,10.5944301 19.0744062,10.5930172 L18.3146138,10.5930172 C18.1408574,10.5930172 18,10.7330011 18,10.90568 L18,11.6873372 C18,11.8600161 18.1408574,12 18.3146138,12 L19.2962089,12 C20.8856288,11.9998137 22.2985981,10.9941146 22.8104452,9.49869724 L23.9603587,6.15007817 C24.3203867,5.10126576 25.3118533,4.3962102 26.4269309,4.3960396 L27.6853862,4.3960396 C27.8591426,4.3960396 28,4.25605568 28,4.08337676 L28,3.30953622 C27.9983327,3.14048741 27.8617564,3.00337302 27.6916785,3 Z" id="Path"></path>
                    <polygon id="Path" points="18 18 18.6382222 18 18.6382222 16.8309773 19.8915556 16.8309773 19.8915556 16.2833436 18.6382222 16.2833436 18.6382222 15.5457898 20 15.5457898 20 15 18 15"></polygon>
                    <rect id="Rectangle" x="27" y="15" width="1" height="3"></rect>
                    <polygon id="Path" points="34 15.5457898 34.7272727 15.5457898 34.7272727 18 35.2727273 18 35.2727273 15.5457898 36 15.5457898 36 15 34 15"></polygon>
                    <polygon id="Path" points="42.5007342 16.995083 42.4948605 16.995083 41.5286344 15 41 15 41 18 41.4992658 18 41.4992658 16.004917 41.5022026 16.004917 42.4669604 18 43 18 43 15 42.5007342 15"></polygon>
                    <polygon id="Path" points="49.5879397 16.7129687 50.8659966 16.7129687 50.8659966 16.1782422 49.5879397 16.1782422 49.5879397 15.5347265 50.9715243 15.5347265 50.9715243 15 49 15 49 18 51 18 51 17.4652735 49.5879397 17.4652735"></polygon>
                    <path d="M58.3744597,16.2899016 L57.7511407,16.1335186 C57.6894753,16.1213981 57.6323962,16.0877042 57.5874256,16.0368774 C57.545701,15.9847344 57.5239979,15.9149124 57.5273467,15.8435949 C57.5269085,15.7802429 57.5443286,15.7184876 57.5769118,15.6678837 C57.6136811,15.6128543 57.6632168,15.5713741 57.7195993,15.5484 C57.7888723,15.5189409 57.8621879,15.504646 57.9358834,15.5062293 C58.0412584,15.4973226 58.1463564,15.5274456 58.2362781,15.5923278 C58.3070707,15.6496171 58.351819,15.7413905 58.357938,15.8418378 L58.9001504,15.8418378 C58.9032124,15.6802876 58.8604295,15.5221038 58.7784906,15.3920169 C58.6930641,15.2599695 58.5774755,15.1588563 58.4450524,15.1003362 C58.2939045,15.0312139 58.1326949,14.9971953 57.9704288,15.0001808 C57.8018142,14.9972154 57.634214,15.031185 57.4762796,15.1003362 C57.3388641,15.1596273 57.2189393,15.2639346 57.1308257,15.4008025 C57.0446109,15.5407516 56.9997863,15.70979 57.0031579,15.8822514 C56.9986707,16.0678071 57.0520586,16.248932 57.1533553,16.3918141 C57.2720108,16.5409802 57.4312973,16.6372581 57.6039473,16.6641666 L58.13114,16.7977072 C58.2260007,16.8144408 58.3158125,16.8585211 58.3924834,16.9259765 C58.4437364,16.9828434 58.4711724,17.0630847 58.467582,17.1456156 C58.4689773,17.2459597 58.4279477,17.340643 58.357938,17.3986398 C58.2571751,17.4711823 58.1395195,17.5049782 58.0214959,17.495281 C57.8935583,17.5052779 57.7663622,17.4657618 57.6595203,17.3828258 C57.5802769,17.3142818 57.5348132,17.2046254 57.5378605,17.0893879 L57.5378605,17.0665455 L57.000154,17.0665455 L57.000154,17.0981735 C56.997001,17.2719567 57.0423473,17.4422078 57.1293237,17.5831367 C57.2210742,17.7256073 57.3463447,17.8336881 57.4897973,17.8941456 C57.6644684,17.9681209 57.8492852,18.0038583 58.0350137,17.9995724 C58.2096181,18.0045376 58.3831438,17.9662127 58.5441827,17.8871172 C58.6803684,17.8224749 58.7973477,17.7125057 58.8806247,17.5708369 C58.9609528,17.428121 59.0023312,17.2602272 58.9992807,17.0893879 C59.0069279,16.8979499 58.9533854,16.7100368 58.8490833,16.5622541 C58.7213151,16.4120073 58.5542276,16.3161278 58.3744597,16.2899016 L58.3744597,16.2899016 Z" id="Path"></path>
                    <path d="M65.3875137,16.2899143 L64.7622456,16.1335295 C64.700888,16.1217186 64.6441734,16.0879538 64.5999164,16.0368872 C64.558162,15.9847436 64.5364433,15.9149208 64.5397945,15.8436025 C64.539356,15.7802498 64.5567886,15.7184938 64.5893951,15.6678892 C64.6261907,15.6128593 64.6757618,15.5713786 64.7321846,15.5484042 C64.8009723,15.5188838 64.873858,15.5045833 64.9471206,15.506233 C65.0525363,15.4978008 65.1575872,15.5278891 65.2477302,15.5923325 C65.3168635,15.6514312 65.3611516,15.7421971 65.3694771,15.8418454 L65.9075685,15.8418454 C65.9106326,15.6802933 65.8678191,15.5221077 65.7858215,15.3920194 C65.7007411,15.2602343 65.5856173,15.1591432 65.4536479,15.1003353 C65.3023604,15.0313418 65.1410574,14.9973275 64.9786846,15.0001787 C64.8099493,14.9972133 64.6422291,15.0311833 64.4841817,15.1003353 C64.3466678,15.1596271 64.2266573,15.2639355 64.1384805,15.400805 C64.0515984,15.5404016 64.0066766,15.7096873 64.0107214,15.8822595 C64.006231,16.0678173 64.0596571,16.2489443 64.1610263,16.3918281 C64.2774508,16.5388632 64.4333679,16.6349602 64.6029225,16.6641837 L65.1319955,16.7977258 C65.2265737,16.8140117 65.3160546,16.8581524 65.3920229,16.9259965 C65.4443913,16.9821205 65.4725157,17.0627057 65.4686783,17.1456382 C65.4700746,17.2459834 65.4290157,17.3406679 65.3589558,17.3986653 C65.2580425,17.4709895 65.1403637,17.5047684 65.022273,17.4953076 C64.894222,17.5055694 64.7668632,17.4660306 64.6600383,17.3828511 C64.5807382,17.3143064 64.535242,17.2046487 64.5382914,17.0894099 L64.5382914,17.0665672 L64.0002001,17.0665672 L64.0002001,17.0981956 C63.9966083,17.2717815 64.0414545,17.442016 64.1279592,17.5831643 C64.2203637,17.7256913 64.3462138,17.8337455 64.4901939,17.8941768 C64.6649197,17.9684665 64.8499192,18.0042141 65.0358004,17.9996048 C65.2105077,18.0042533 65.3841014,17.9659403 65.5453338,17.8871483 C65.681617,17.8225052 65.79868,17.7125348 65.8820166,17.5708644 C65.9619595,17.4279938 66.0028476,17.2600807 65.9992544,17.0894099 C66.0070527,16.8979462 65.9534549,16.709971 65.8489496,16.56227 C65.724442,16.4154361 65.5625049,16.3198552 65.3875137,16.2899143 L65.3875137,16.2899143 Z" id="Path"></path>
                    <path d="M75.9974078,4.62991682 C75.9974078,4.44177538 76.0366112,4.2370775 75.7574831,4.2370775 C75.4360153,4.2370775 75.0643672,4.22503645 74.7005598,4.22052105 C74.6282142,4.21930972 74.5583953,4.24604908 74.506791,4.2947309 C74.4551868,4.34341272 74.4261251,4.40995418 74.4261361,4.47940367 L74.4261361,4.98813812 C74.4365335,5.07666051 74.4365335,5.16602401 74.4261361,5.2545464 C74.3437134,5.20338925 74.2660618,5.14547612 74.1940521,5.08145627 C73.0022692,3.79456883 70.3176215,3.5492324 68.6726475,4.93094312 C67.2707345,6.10795596 66.7908851,7.61760286 67.0809901,9.33796818 C67.3648226,10.9830769 68.2978632,12.2112642 69.9820405,12.7636475 C71.5956518,13.2919486 73.0634265,12.96383 74.3461612,11.8124044 L74.3195029,16.1396575 C74.3178013,16.2484545 74.22587,16.3360238 74.1125091,16.3368297 L69.9208833,16.3563964 C69.7105349,16.3580429 69.540678,16.5217464 69.5398264,16.7236485 L69.5398264,17.6538198 C69.5406898,17.845253 69.7026172,18 69.9020656,18 L74.030966,18 C75.1178679,18 75.9989759,17.1542927 75.9989759,16.11106 L75.9989759,6.95685013 C75.9989759,6.1817074 76.0021122,5.40656468 75.9974078,4.62991682 Z M74.0701694,9.98366959 C73.6862219,10.7744209 72.9290398,11.3393264 72.0359251,11.501344 C71.1428104,11.6633617 70.2230569,11.4026648 69.5649165,10.800956 C68.8765051,10.182347 68.5895363,9.38914265 68.6067858,8.48756887 C68.6256035,7.34968945 69.0395912,6.40747713 70.0996507,5.80993992 C71.0750309,5.25906179 72.0629562,5.32378245 73.0195187,5.85810413 C74.3445931,6.59561857 74.8244425,8.51165098 74.0701694,9.98366959 Z" id="Shape"></path>
                </g>
            </g>
        </g>
    </g>
</svg>